<svg width="200" height="200" viewBox="0 0 200 200" fill="none" xmlns="http://www.w3.org/2000/svg">
<path d="M133.333 100V133.333M133.333 75V75.0833M175 58.3333V141.667C175 150.507 171.488 158.986 165.237 165.237C158.986 171.488 150.507 175 141.667 175H58.3333C49.4928 175 41.0143 171.488 34.7631 165.237C28.5119 158.986 25 150.507 25 141.667V58.3333C25 49.4928 28.5119 41.0143 34.7631 34.7631C41.0143 28.5119 49.4928 25 58.3333 25H141.667C150.507 25 158.986 28.5119 165.237 34.7631C171.488 41.0143 175 49.4928 175 58.3333Z" stroke="black" stroke-width="12" stroke-linecap="round" stroke-linejoin="round"/>
<path d="M58.3333 133.333L67.7083 108.333M67.7083 108.333L83.3333 66.6666L98.9583 108.333M67.7083 108.333H98.9583M108.333 133.333L98.9583 108.333" stroke="black" stroke-width="12" stroke-linecap="round" stroke-linejoin="round"/>
</svg>
