<svg width="200" height="200" viewBox="0 0 200 200" fill="none" xmlns="http://www.w3.org/2000/svg">
<path d="M44.375 49.9375C44.375 33.4063 57.7813 20 74.3125 20H125.688C142.219 20 155.625 33.4063 155.625 49.9375C155.625 60.4063 150.25 69.625 142.125 74.9687C150.25 80.3125 155.625 89.5312 155.625 100C155.625 116.531 142.219 129.937 125.688 129.937H125.031C117.281 129.937 110.219 127 104.906 122.156V149.75C104.906 166.5 91.1563 180 74.4688 180C57.9688 180 44.375 166.625 44.375 150.063C44.375 139.594 49.75 130.375 57.875 125.031C49.75 119.688 44.375 110.469 44.375 100C44.375 89.5312 49.75 80.3125 57.875 74.9687C49.75 69.625 44.375 60.4063 44.375 49.9375ZM95.0937 79.875H74.3125C63.1875 79.875 54.1875 88.875 54.1875 100C54.1875 111.063 63.125 120.062 74.1875 120.125H95.0937V79.875ZM104.906 100C104.906 111.125 113.906 120.125 125.031 120.125H125.688C136.813 120.125 145.813 111.125 145.813 100C145.813 88.875 136.813 79.875 125.688 79.875H125.031C113.906 79.875 104.906 88.875 104.906 100ZM74.3125 129.937H74.1875C63.125 130 54.1875 139 54.1875 150.063C54.1875 161.125 63.3125 170.187 74.4688 170.187C85.8125 170.187 95.0937 161 95.0937 149.719V129.906H74.3125V129.937ZM74.3125 29.8125C63.1875 29.8125 54.1875 38.8125 54.1875 49.9375C54.1875 61.0625 63.1875 70.0625 74.3125 70.0625H95.0937V29.8125H74.3125ZM104.906 70.0625H125.688C136.813 70.0625 145.813 61.0625 145.813 49.9375C145.813 38.8125 136.813 29.8125 125.688 29.8125H104.906V70.0625Z" fill="black"/>
</svg>
