<svg width="200" height="200" viewBox="0 0 200 200" fill="none" xmlns="http://www.w3.org/2000/svg">
<path d="M81.9167 63.25C88.725 63.2917 93.8917 65.2333 97.2667 69.0167C100.458 72.6083 101.992 77.8 101.825 84.4333L101.708 84.9417C101.603 85.1797 101.429 85.3815 101.21 85.5222C100.991 85.6628 100.735 85.7363 100.475 85.7333H86.65C86.2166 85.7313 85.8009 85.5605 85.4913 85.2571C85.1817 84.9537 85.0025 84.5417 84.9917 84.1083C85.0028 80.5861 83.9195 78.6139 81.7417 78.1917L80.7417 78.1C77.8917 78.1 76.0417 79.8583 75.9917 82.925C75.9334 86.3417 77.8667 89.45 83.3667 94.7833C90.6 101.583 93.5084 107.608 93.3667 115.558C93.1417 128.425 84.3917 136.75 71.0917 136.75C64.3 136.75 59.1083 134.925 55.65 131.342C52.15 127.7 50.55 122.358 50.8833 115.458C50.899 115.107 51.0445 114.775 51.2917 114.525C51.5419 114.283 51.8769 114.148 52.225 114.15H66.525C66.7236 114.163 66.9183 114.211 67.1 114.292C67.4285 114.463 67.6768 114.756 67.7917 115.108C67.8361 115.275 67.8417 115.442 67.8083 115.608C67.65 118.092 68.0917 119.95 69.0667 120.983C69.4006 121.328 69.805 121.597 70.2523 121.771C70.6996 121.945 71.1792 122.02 71.6583 121.992C74.3 121.992 75.85 120.117 75.9084 116.867C75.9584 114.058 75.0583 111.583 70.225 106.6C63.9667 100.483 58.3583 94.1667 58.5333 84.2333C58.5547 81.4528 59.137 78.7052 60.2453 76.1549C61.3536 73.6047 62.9651 71.3044 64.9833 69.3917C69.2667 65.375 75.1167 63.25 81.9167 63.25ZM33.725 63.4833C39.95 63.4333 44.8417 65.35 48.2417 69.1917C51.8417 73.25 53.6667 79.3667 53.675 87.375C53.6706 87.7272 53.5271 88.0633 53.2757 88.31C53.0243 88.5567 52.6855 88.6939 52.3333 88.6917H37.325C37.0631 88.6797 36.8143 88.5731 36.625 88.3917C36.4448 88.199 36.3411 87.9471 36.3333 87.6833C36.2167 82.4917 34.7667 79.8 31.9 79.4833L31.3083 79.45C25.5583 79.4583 22.1667 87.2667 20.3667 91.6C17.8216 97.663 16.6108 104.203 16.8167 110.775C16.9417 113.825 17.4333 118.108 20.3167 119.883C22.8833 121.458 26.5417 120.417 28.7583 118.667C30.9667 116.925 32.75 113.908 33.5 111.158C33.6111 110.769 33.6139 110.497 33.5083 110.342C33.4528 110.281 33.3639 110.239 33.2417 110.217L29.0417 110.183C28.8379 110.177 28.6375 110.13 28.4527 110.044C28.2679 109.958 28.1025 109.835 27.9667 109.683C27.859 109.567 27.7868 109.423 27.7583 109.267C27.7139 109.114 27.7139 108.952 27.7583 108.8L30.3917 97.35C30.4689 97.0522 30.6358 96.7853 30.8699 96.5855C31.1039 96.3858 31.3937 96.2628 31.7 96.2333V96.2083H56.9917L57.1667 96.2167C57.825 96.3 58.2917 96.9167 58.2833 97.5833V97.6167L55.65 109.042C55.5083 109.692 54.8583 110.167 54.1167 110.167H50.9417C50.827 110.167 50.7156 110.205 50.624 110.274C50.5325 110.343 50.4656 110.44 50.4333 110.55C47.5 120.5 43.525 127.35 38.2833 131.458C33.8167 134.958 28.325 136.592 20.975 136.592C14.375 136.592 9.92501 134.467 6.15001 130.275C1.16668 124.725 -0.891658 115.658 0.358343 104.717C2.60834 84.1917 13.2417 63.4833 33.725 63.4833ZM175.133 64.5833C191.883 64.5833 200.25 72.1833 199.992 87.175C199.683 104.742 188.983 117.658 172.875 120.642C170.581 121.047 168.267 121.236 165.933 121.208L158.15 121.175C158.025 121.179 157.905 121.23 157.816 121.318C157.726 121.406 157.673 121.525 157.667 121.65C157.667 121.733 157.689 121.814 157.733 121.892C157.785 121.959 157.847 122.018 157.917 122.067L164.533 125.517C165.078 125.811 165.289 126.267 165.167 126.883L163.442 134.658C163.3 135.308 162.775 135.683 162.017 135.683H147.825C147.622 135.678 147.421 135.636 147.233 135.558C147.051 135.467 146.887 135.342 146.75 135.192C146.647 135.07 146.574 134.926 146.538 134.771C146.502 134.616 146.503 134.454 146.542 134.3L162.342 65.625C162.5 64.9083 163.175 64.5917 163.775 64.5917L175.133 64.5833ZM143.942 64.6833C144.097 64.7528 144.24 64.8456 144.367 64.9583C144.483 65.0871 144.579 65.2333 144.65 65.3917C144.705 65.55 144.736 65.7158 144.742 65.8833L144.65 134.325C144.676 134.486 144.667 134.651 144.625 134.808C144.577 134.977 144.491 135.133 144.374 135.265C144.257 135.396 144.112 135.499 143.95 135.567C143.783 135.644 143.601 135.681 143.417 135.675H128.308C127.963 135.674 127.632 135.54 127.383 135.3C127.271 135.173 127.178 135.03 127.108 134.875C127.05 134.714 127.016 134.546 127.008 134.375L127.333 127.733C127.35 127.008 127.333 126.808 126.908 126.758L126.342 126.742H112.058C111.025 126.742 110.95 126.833 110.583 127.783L107.617 134.925C107.35 135.425 106.817 135.675 106.017 135.675H91.0583C90.15 135.675 89.5 134.775 89.8417 133.933L120.825 65.6083C121.033 65.2 121.35 64.5833 122.067 64.5833H143.45C143.617 64.5833 143.781 64.6167 143.942 64.6833ZM129.167 83.2083C129.1 82.9417 128.883 82.9667 128.708 83.3167C128.584 83.5692 128.473 83.8279 128.375 84.0917L117.675 110.617L117.542 111.017C117.531 111.072 117.528 111.125 117.533 111.175L117.592 111.317C117.625 111.36 117.668 111.394 117.717 111.417C117.759 111.444 117.808 111.461 117.858 111.467L126.792 111.583C127.783 111.5 127.833 111.45 127.933 110.442C127.95 110.083 129.217 83.5167 129.167 83.2083ZM167.6 79.85C167.475 79.8539 167.356 79.9044 167.267 79.9917C167.176 80.0799 167.123 80.1989 167.117 80.325C167.118 80.4114 167.142 80.496 167.186 80.5705C167.229 80.6449 167.292 80.7068 167.367 80.75L174.383 84.4583C174.733 84.65 174.742 84.9833 174.625 85.5583C174.567 85.8167 170.125 105.35 170.133 105.367C170.158 105.392 170.292 105.458 170.958 105.458H171.258C178.717 105.158 182.783 96.3417 182.933 87.7833C183.008 83.1583 181.433 80.3167 178.575 79.9L177.983 79.85H167.6Z" fill="black"/>
</svg>
