<svg width="200" height="200" viewBox="0 0 200 200" fill="none" xmlns="http://www.w3.org/2000/svg">
<path d="M175 58.3333V141.667C175 150.507 171.488 158.986 165.237 165.237C158.986 171.488 150.507 175 141.667 175H58.3333C49.4928 175 41.0143 171.488 34.7631 165.237C28.5119 158.986 25 150.507 25 141.667V58.3333C25 49.4928 28.5119 41.0143 34.7631 34.7631C41.0143 28.5119 49.4928 25 58.3333 25H141.667C150.507 25 158.986 28.5119 165.237 34.7631C171.488 41.0143 175 49.4928 175 58.3333Z" stroke="black" stroke-width="12" stroke-linecap="round" stroke-linejoin="round"/>
<path d="M58.3333 133.333V100M58.3333 100V66.6666H75C79.4203 66.6666 83.6595 68.4226 86.7851 71.5482C89.9107 74.6738 91.6667 78.913 91.6667 83.3333C91.6667 87.7536 89.9107 91.9928 86.7851 95.1184C83.6595 98.244 79.4203 100 75 100H58.3333ZM141.667 91.6666C139.117 86.5583 133.892 83.3333 128.183 83.3333H125C121.685 83.3333 118.505 84.6503 116.161 86.9945C113.817 89.3387 112.5 92.5181 112.5 95.8333C112.5 99.1485 113.817 102.328 116.161 104.672C118.505 107.016 121.685 108.333 125 108.333H129.167C132.482 108.333 135.661 109.65 138.006 111.994C140.35 114.339 141.667 117.518 141.667 120.833C141.667 124.148 140.35 127.328 138.006 129.672C135.661 132.016 132.482 133.333 129.167 133.333H125.983C123.184 133.332 120.44 132.552 118.059 131.081C115.678 129.609 113.753 127.503 112.5 125" stroke="black" stroke-width="12" stroke-linecap="round" stroke-linejoin="round"/>
</svg>
